<svg xmlns="http://www.w3.org/2000/svg" width="136.266" height="57.291" viewBox="0 0 136.266 57.291"><g transform="translate(30.62 1008.629)"><g transform="translate(0.914 -990.023)"><path d="M88.59-946.445H86.1a.791.791,0,0,0-.772.772l-1.285,9.907-6.186-9.988a.781.781,0,0,0-1.412.184q-.763,2.166-1.525,4.333a18.8,18.8,0,0,0-.457,3.742q-.654,5.4-1.309,10.793a.773.773,0,0,0,.772.773h2.551a.708.708,0,0,0,.722-.574.859.859,0,0,0,.051-.2l1.264-10.275,7.153,10.664a.779.779,0,0,0,1.44-.39l2.258-18.971A.773.773,0,0,0,88.59-946.445Z" transform="translate(-72.62 947.053)"/><g transform="translate(0 0)"><path d="M87.409-948.384c-2.042,0-3.614-.416-3.919,1.934l-1.21,9.325,1.08-.292-4.021-6.492-2.165-3.5a1.413,1.413,0,0,0-1.262-.652,1.408,1.408,0,0,0-1.151.836,21.12,21.12,0,0,0-1.2,3.388,31.043,31.043,0,0,0-1.077,6.778l-1.019,8.394c-.27,2.228,1.657,1.952,3.32,1.952,2.006,0,1.881-1.51,2.085-3.165q.52-4.231,1.041-8.461l-1.08.292,6.472,9.649c.539.8.944,1.737,2.037,1.644,1-.085,1.143-1.149,1.236-1.922L87.959-940.3l.655-5.508c.144-1.206.3-2.177-1.052-2.555a.58.58,0,0,0-.308,1.117c.786.221-.43,6.742-.527,7.557l-.947,7.956q-.109.918-.218,1.836-.037.306-.073.612.178.931-.846.813l-2.384-3.555-4.428-6.6a.584.584,0,0,0-1.08.293l-.669,5.439c-.169,1.373.051,5.028-1.808,5.028-1.017,0-1.73-.141-1.578-1.392q.182-1.5.364-3,.327-2.7.655-5.4a30.133,30.133,0,0,1,.582-4.787c.213-.731.51-1.448.762-2.166.284-.806.786-2.744,1.734-1.214l5.567,8.99a.584.584,0,0,0,1.08-.292q.378-2.914.756-5.828.189-1.457.378-2.914c.217-1.672,1.569-1.359,2.836-1.359A.58.58,0,0,0,87.409-948.384Z" transform="translate(-71.438 948.412)" fill="#fff"/></g></g><g transform="translate(54.643 -990.277)"><path d="M260.977-947.1l-7.983.013a2.862,2.862,0,0,0-1.982.527l-3.358,2.271c-.008.005-.013.012-.02.017a.7.7,0,0,0-.215.222v0a.761.761,0,0,0-.058.119c0,.008-.008.015-.011.023a.792.792,0,0,0,.341.981.618.618,0,0,0,.521.074l8.1-.126-3.25,15.965a.783.783,0,0,0,.745.978h3.4a.771.771,0,0,0,.745-.567l3.77-19.52A.784.784,0,0,0,260.977-947.1Z" transform="translate(-246.69 947.76)"/><g transform="translate(0)"><path d="M259.618-949.153c-2.918,0-5.94-.214-8.845.058a5.427,5.427,0,0,0-2.372,1.21,16.8,16.8,0,0,0-2.751,1.951c-.754.777-.043,1.873.771,2.187a5.1,5.1,0,0,0,1.588-.017l2.315-.036,4.63-.072-.559-.733-2.769,13.6c-.223,1.092-1.14,3.142.176,3.913a5.013,5.013,0,0,0,2.345.163c.6,0,1.774.243,2.314-.152a1.858,1.858,0,0,0,.8-1.432l.685-3.549,1.371-7.1q.686-3.549,1.371-7.1c.228-1.179.579-2.518-.921-2.873-.726-.172-1.035.945-.308,1.117.794.189-2.984,17.475-3.316,19.194-.2,1.047-1.887.733-2.566.733-1.38,0-1.155-1.05-.958-2.018l.963-4.731,1.926-9.461a.587.587,0,0,0-.559-.733l-5.787.09c-.212,0-2.761.042-2.666-.171.213-.48,1.11-.843,1.526-1.124.768-.52,1.526-1.06,2.32-1.54.776-.469,2.269-.207,3.131-.208l6.141-.01A.58.58,0,0,0,259.618-949.153Z" transform="translate(-245.33 949.232)" fill="#fff"/></g></g><g transform="translate(-14.166 -990.359)"><path d="M39.235-946.589a.793.793,0,0,0-.167-.3.706.706,0,0,0-.578-.267H28.419a.775.775,0,0,0-.667.382,10.112,10.112,0,0,0-1.668,3.572q-.336,2.924-.671,5.85-.393,3.425-.786,6.849c-.149,1.3-.385,2.081.5,3.146.412.5.784,1.24,1.5,1.24h8.694c.641,0,1.036-.6,1.454-1.011.486-.484,1.36-1.056,1.445-1.788q.259-2.223.518-4.446l.988-8.478q.124-1.065.248-2.129A7.775,7.775,0,0,0,39.235-946.589ZM34.183-930.1H28.727l1.74-12.889H35.7Q34.94-936.541,34.183-930.1Z" transform="translate(-23.91 947.88)"/><g transform="translate(0 0)"><path d="M38.456-948.5c-.551-.991-1.39-.854-2.43-.854H30.694c-1.154,0-3.2-.424-4.232.182-.959.561-1.57,2.264-1.982,3.244-.573,1.364-.492,3.167-.658,4.617l-.6,5.194c-.187,1.629-.37,3.258-.568,4.885a3.974,3.974,0,0,0,1.1,3.091,2.263,2.263,0,0,0,2.1.985h5.116c1.267,0,2.874.317,4.025-.315a7.907,7.907,0,0,0,2.336-2.417c.6-.982.441-2.861.571-3.98l.624-5.351.618-5.3a7.584,7.584,0,0,0-.636-3.838c-.244-.7-1.364-.4-1.117.308a7.67,7.67,0,0,1,.719,2.466,35.138,35.138,0,0,1-.46,3.946q-.453,3.886-.906,7.773c-.129,1.1-.027,3.04-.791,3.912a3.9,3.9,0,0,1-3.143,1.642H29.139c-.953,0-3.49.414-4.249-.264-1.8-1.6-.873-4.323-.636-6.4l.861-7.505a11,11,0,0,1,.84-3.9c.226-.445.509-.867.768-1.292.484-.795,2.035-.523,2.786-.523h3.555c.712,0,4-.418,4.392.28C37.819-947.262,38.819-947.846,38.456-948.5Z" transform="translate(-22.63 949.498)" fill="#fff"/><path d="M42.412-922.646H36.956l.559.734,1.74-12.889-.559.425h5.229l-.579-.579q-.757,6.445-1.513,12.889c-.087.741,1.073.733,1.159,0q.756-6.445,1.513-12.889a.58.58,0,0,0-.579-.579H38.7a.575.575,0,0,0-.559.425q-.87,6.445-1.74,12.889a.59.59,0,0,0,.559.733h5.456A.58.58,0,0,0,42.412-922.646Z" transform="translate(-32.138 939.849)" fill="#fff"/></g></g><g transform="translate(-30.62 -990.344)"><path d="M-12.939-947.373h-12.9a.768.768,0,0,0-.745.567l-.528,3.381a.846.846,0,0,0,0,.223l-1.762,16.031a.773.773,0,0,0,.772.773h12.9a.79.79,0,0,0,.772-.773q.391-3.176.782-6.352a.774.774,0,0,0-.772-.773l-2.855-.049a.788.788,0,0,0-.772.772q-.212,1.9-.423,3.793h-5.909q.79-6.643,1.58-13.286h5.943l-.446,3.447a.772.772,0,0,0,.772.772l2.582-.049a.769.769,0,0,0,.745-.567q.509-3.467,1.018-6.934A.786.786,0,0,0-12.939-947.373Z" transform="translate(29.42 948.015)"/><g transform="translate(0 0)"><path d="M-14.138-949.387H-25.2c-.714,0-2.5-.338-2.942.559a10.674,10.674,0,0,0-.754,3.969c-.046,3.409-.74,6.926-1.112,10.317q-.294,2.672-.587,5.343c-.111,1.01.113,1.639,1.132,1.925a8.242,8.242,0,0,0,2,.021h8.6c.967,0,2.627.378,3.405-.4.723-.723.574-2.348.687-3.262.174-1.412.717-3.192.385-4.583-.23-.964-1.709-.819-2.381-.83-.929-.016-2.293-.334-2.866.645a4.586,4.586,0,0,0-.319,1.761l-.3,2.709.579-.579h-5.909l.579.579q.79-6.643,1.58-13.286l-.579.579h5.943l-.579-.579c-.155,1.2-1.132,3.816.232,4.615a4.433,4.433,0,0,0,2.223.155,2.719,2.719,0,0,0,2.041-.46c.524-.524.452-1.618.55-2.285q.255-1.734.509-3.467c.185-1.258.776-3.031-.895-3.424-.727-.171-1.035.946-.308,1.118.7.165-.414,5.4-.509,6.043-.214,1.459-1.271,1.314-2.421,1.336-1.117.021-.334-3.088-.264-3.63a.579.579,0,0,0-.579-.579h-5.943a.593.593,0,0,0-.579.579q-.79,6.643-1.58,13.286a.58.58,0,0,0,.579.579h5.909a.592.592,0,0,0,.579-.579l.3-2.709a1.263,1.263,0,0,1,1.456-1.257c.464.008,1.96-.214,1.835.8q-.213,1.732-.427,3.465l-.213,1.732c-.126,1.025-1.5.771-2.106.771H-28.693c-1.265,0-.486-3.112-.416-3.756.5-4.543.823-9.149,1.529-13.664q.132-.845.264-1.69c.148-.948,1.542-.705,2.118-.705h11.06A.58.58,0,0,0-14.138-949.387Z" transform="translate(30.62 949.45)" fill="#fff"/></g></g><g transform="translate(85.981 -990.323)"><path d="M367.047-927.51l-6.932-11.812-3.885-6.62a5.6,5.6,0,0,0-.7-1.141c-.6-.6-2.407-.226-3.169-.226a.768.768,0,0,0-.745.567q-1.493,9.708-2.986,19.417a.844.844,0,0,0,0,.246.724.724,0,0,0,.744.732h3.015a.79.79,0,0,0,.772-.772q.2-1.635.4-3.269h4.6a.78.78,0,0,0,.667-1.162c-.394-.7-.976-2.537-1.933-2.577l-3.063-.128.933-6.521,4.866,8.186,3.16,5.316c.79,1.33,2.147.929,3.585.929A.779.779,0,0,0,367.047-927.51Z" transform="translate(-348.044 948.029)"/><g transform="translate(0 0)"><path d="M366.256-929.157l-9.324-15.886c-.65-1.108-1.3-2.214-1.926-3.338a1.886,1.886,0,0,0-1.571-.949c-1.62-.117-3.47-.216-3.763,1.685q-1.446,9.406-2.892,18.81c-.362,2.352,2.972,1.711,4.319,1.711,1.908,0,1.61-3.445,1.755-4.621l-.579.579a24.4,24.4,0,0,0,5.077-.093c.8-.177.941-1.177.748-1.8a7.608,7.608,0,0,0-1.379-2.459c-.859-1.032-3.028-.624-4.176-.672l.559.733.933-6.522-1.059.138,7.739,13.019c.875,1.472,1.842,1.811,3.524,1.73,1.2-.058,2.569-.383,2.075-1.927-.227-.709-1.346-.406-1.118.308.178.557-1.554.482-1.764.485-1.089.015-1.525-.859-2-1.664l-2.3-3.866-5.153-8.669c-.232-.39-.984-.384-1.059.138l-.933,6.522a.591.591,0,0,0,.559.733l2.451.1c1.067.045,1.292.737,1.677,1.55.533,1.126-.675,1.056-1.524,1.056h-2.874a.593.593,0,0,0-.579.579q-.168,1.362-.336,2.724c-.137,1.111-3.558,1.116-3.368-.113l1.026-6.675,1.026-6.675q.234-1.517.467-3.034c.174-1.129.084-2.511,1.468-2.633.651-.057,1.572-.243,2.029.353a22.589,22.589,0,0,1,1.328,2.319l3.29,5.606,6.631,11.3A.58.58,0,0,0,366.256-929.157Z" transform="translate(-346.753 949.383)" fill="#fff"/></g></g><g transform="translate(68.333 -990.267)"><path d="M308.134-945.514c-.55-.655-.974-1.518-1.9-1.52l-3.454-.007-7.018-.015a.791.791,0,0,0-.772.772q-.177,1.334-.354,2.669a.593.593,0,0,0,.425.7.771.771,0,0,0,.347.076l8.437-.055q.008.912.016,1.823c0-.171-.318.764-.4.977l-.216.577-8.751.1a.772.772,0,0,0-.745.567q-1.149,5.891-2.3,11.782a.784.784,0,0,0,.745.978h3.014a.769.769,0,0,0,.745-.567l1.377-8.273,2.889-.058q1.075,4.165,2.15,8.331a.778.778,0,0,0,.745.567h3.324a.779.779,0,0,0,.745-.978l-2.468-7.791c1.3-1.158,3.034-2.32,3.311-4.042q.352-2.193.7-4.386A2.162,2.162,0,0,0,308.134-945.514Z" transform="translate(-290.88 947.718)"/><path d="M307.3-947.405c-.439-.554-1-1.51-1.788-1.618a29.876,29.876,0,0,0-3.976-.078l-4.679-.01c-.945,0-2.529-.364-3.288.394-.6.6-.516,1.8-.615,2.553-.122.922-.352,1.76.571,2.264s2.632.142,3.652.135l5.424-.036-.579-.579q.006.608.011,1.215c0,.494.276-.191.05.331-.237.549-.429,1.117-.638,1.677l.559-.425-5.834.066c-1.1.013-3.044-.4-3.921.474-.419.419-.426,1.2-.529,1.73q-.287,1.472-.574,2.945L290-930.474c-.214,1.1-.78,2.37.2,3.224a2.069,2.069,0,0,0,1.366.254,12.486,12.486,0,0,0,2.566-.021c1.335-.3,1.253-1.595,1.445-2.745q.541-3.25,1.082-6.5l-.559.425,2.889-.058-.559-.426,1.536,5.951c.309,1.2.315,3.026,1.764,3.352a11.537,11.537,0,0,0,2.37.021,3.583,3.583,0,0,0,1.744-.164c1.251-.733.466-2.184.139-3.216l-1.763-5.565c-.143-.451,1.084-1.2,1.391-1.483a6.756,6.756,0,0,0,1.434-1.853c.781-1.479.75-3.7,1.013-5.341a3.13,3.13,0,0,0-.749-2.788c-.464-.586-1.278.24-.819.819,1.064,1.343.087,3.929-.165,5.5-.327,2.036-1.786,3.063-3.249,4.335a.57.57,0,0,0-.149.564l1.411,4.452.705,2.226c.406,1.282-.518,1.358-1.5,1.358-1.093,0-1.838-.1-2.155-1.332l-.614-2.38-1.228-4.761a.582.582,0,0,0-.559-.425l-2.889.058a.578.578,0,0,0-.559.425q-.59,3.545-1.18,7.091a1.407,1.407,0,0,1-1.589,1.324c-.452,0-2.095.266-1.88-.833l.8-4.124.689-3.535c.272-1.4.18-3.668,2.043-3.69l7.584-.086a.6.6,0,0,0,.559-.425,6.7,6.7,0,0,0,.348-1.208.568.568,0,0,0,.287-.5q-.008-.912-.016-1.823a.585.585,0,0,0-.579-.579l-6.027.039-1.205.008c-.746,0-1.452.218-1.327-.719.153-1.156.12-2.329,1.646-2.326l5.848.012,2.878.006c1.158,0,1.434.552,2.067,1.351C306.946-946,307.76-946.826,307.3-947.405Z" transform="translate(-289.638 949.2)" fill="#fff"/></g><path d="M367.047-927.51l-6.932-11.812-3.885-6.62a5.6,5.6,0,0,0-.7-1.141c-.6-.6-2.407-.226-3.169-.226a.768.768,0,0,0-.745.567q-1.493,9.708-2.986,19.417a.844.844,0,0,0,0,.246.724.724,0,0,0,.744.732h3.015a.79.79,0,0,0,.772-.772q.2-1.635.4-3.269h4.6a.78.78,0,0,0,.667-1.162c-.394-.7-.976-2.537-1.933-2.577l-3.063-.128.933-6.521,4.866,8.186,3.16,5.316c.79,1.33,2.147.929,3.585.929A.779.779,0,0,0,367.047-927.51Z" transform="translate(-262.063 -42.294)"/><path d="M308.134-945.514c-.55-.655-.974-1.518-1.9-1.52l-3.454-.007-7.018-.015a.791.791,0,0,0-.772.772q-.177,1.334-.354,2.669a.593.593,0,0,0,.425.7.771.771,0,0,0,.347.076l8.437-.055q.008.912.016,1.823c0-.171-.318.764-.4.977l-.216.577-8.751.1a.772.772,0,0,0-.745.567q-1.149,5.891-2.3,11.782a.784.784,0,0,0,.745.978h3.014a.769.769,0,0,0,.745-.567l1.377-8.273,2.889-.058q1.075,4.165,2.15,8.331a.778.778,0,0,0,.745.567h3.324a.779.779,0,0,0,.745-.978l-2.468-7.791c1.3-1.158,3.034-2.32,3.311-4.042q.352-2.193.7-4.386A2.162,2.162,0,0,0,308.134-945.514Z" transform="translate(-222.547 -42.548)"/><path d="M260.977-947.1l-7.983.013a2.862,2.862,0,0,0-1.982.527l-3.358,2.271c-.008.005-.013.012-.02.017a.7.7,0,0,0-.215.222v0a.761.761,0,0,0-.058.119c0,.008-.008.015-.011.023a.792.792,0,0,0,.341.981.618.618,0,0,0,.521.074l8.1-.126-3.25,15.965a.783.783,0,0,0,.745.978h3.4a.771.771,0,0,0,.745-.567l3.77-19.52A.784.784,0,0,0,260.977-947.1Z" transform="translate(-192.047 -42.516)"/><path d="M88.59-946.445H86.1a.791.791,0,0,0-.772.772l-1.285,9.907-6.186-9.988a.781.781,0,0,0-1.412.184q-.763,2.166-1.525,4.333a18.8,18.8,0,0,0-.457,3.742q-.654,5.4-1.309,10.793a.773.773,0,0,0,.772.773h2.551a.708.708,0,0,0,.722-.574.859.859,0,0,0,.051-.2l1.264-10.275,7.153,10.664a.779.779,0,0,0,1.44-.39l2.258-18.971A.773.773,0,0,0,88.59-946.445Z" transform="translate(-71.706 -42.971)"/><path d="M39.235-946.589a.793.793,0,0,0-.167-.3.706.706,0,0,0-.578-.267H28.419a.775.775,0,0,0-.667.382,10.112,10.112,0,0,0-1.668,3.572q-.336,2.924-.671,5.85-.393,3.425-.786,6.849c-.149,1.3-.385,2.081.5,3.146.412.5.784,1.24,1.5,1.24h8.694c.641,0,1.036-.6,1.454-1.011.486-.484,1.36-1.056,1.445-1.788q.259-2.223.518-4.446l.988-8.478q.124-1.065.248-2.129A7.775,7.775,0,0,0,39.235-946.589ZM34.183-930.1H28.727l1.74-12.889H35.7Q34.94-936.541,34.183-930.1Z" transform="translate(-38.076 -42.479)"/><path d="M165.861-1008.579a.664.664,0,0,0-.845.312L158.6-995.708l-2.024-3.355a.663.663,0,0,0-.5-.318.671.671,0,0,0-.555.208L148.93-992.1a2.224,2.224,0,0,0-.635.023h-1.873c-.2,0-.414-.014-.639-.028-.272-.016-.554-.033-.83-.033a3.617,3.617,0,0,0-1.2.167c-1.751.607-2.236,2.021-2.7,3.387-.07.2-.141.412-.218.619l-1.058,2.871-.739-1.928c-.118-.308-.227-.651-.341-1.007a7.784,7.784,0,0,0-1.576-3.185,3.876,3.876,0,0,0-2.848-.916c-.316,0-.633.014-.937.029-.262.012-.515.024-.75.024a41.312,41.312,0,0,0-4.2.422c-1.622.95-1.534,2.615-1.463,3.952l.006.1c.012.242.016.5.019.752a5.251,5.251,0,0,0,.891,3.506,2.921,2.921,0,0,0,2.262,1.073l3.774,8.989c.053.126.105.257.157.39a6.7,6.7,0,0,0,.717,1.454l-7.026,19.2a.665.665,0,0,0,.33.824.664.664,0,0,0,.293.068.664.664,0,0,0,.561-.308l7.321-11.535,1.857,3.343a.665.665,0,0,0,.535.34.669.669,0,0,0,.576-.264l5.127-6.835a10.492,10.492,0,0,0,1.642.051c.158,0,.31-.006.451-.006l12.053.321.151,0c3.126,0,3.46-2.6,3.728-4.681.029-.229.058-.459.091-.685.039-.268.1-.56.161-.861a6.79,6.79,0,0,0,.179-2.855,3.443,3.443,0,0,0-1.2-1.827c1.579-.708,1.833-2.456,2.022-3.762.031-.214.062-.424.1-.627.032-.185.067-.37.1-.556.287-1.513.644-3.4-1.064-4.622-.048-.036-.1-.07-.147-.1l-.083-.057a2.649,2.649,0,0,0-.975-.374l-1.722-.519,6.437-20A.665.665,0,0,0,165.861-1008.579Z" transform="translate(-108.84 0)" fill="#fff"/><path d="M163.813-984.693c-.034-.026-.07-.05-.106-.075s-.047-.035-.074-.052a1.96,1.96,0,0,0-.769-.288l-2.416-.729,6.643-20.644-6.959,13.623-2.64-4.379-6.835,7.337a1.794,1.794,0,0,0-.813-.027h-1.939a8.218,8.218,0,0,0-2.452.069c-1.679.583-1.955,2.085-2.516,3.608l-1.669,4.528q-.685-1.789-1.372-3.577c-.472-1.233-.81-3-1.766-3.96-1-1-2.794-.669-4.066-.669-.149,0-3.838.316-3.865.331-1.309.766-1.2,2.139-1.13,3.448.068,1.28-.126,2.824.754,3.864a2.5,2.5,0,0,0,2.2.849l3.942,9.386a6.532,6.532,0,0,0,1.014,1.978l-7.155,19.555L137.744-963l2.4,4.32,5.37-7.16a13.5,13.5,0,0,0,2.585.107l4.128.111,7.741.208c2.964.08,2.964-2.511,3.295-4.8a10.125,10.125,0,0,0,.351-3.463c-.29-1.188-1.347-1.748-2.272-2.421a2.535,2.535,0,0,0,1.072-.037c1.83-.5,1.843-2.487,2.109-4.028C164.811-981.826,165.367-983.576,163.813-984.693Zm-24.149,18.818-2.417-3.955a1.872,1.872,0,0,0,.183.131,6.612,6.612,0,0,0,2.751.507l.754.071Zm17-21.1,1.546-3.186,2.019,4.261Z" transform="translate(-110.324 -1.485)"/><path d="M199.842-937.372h0a.581.581,0,0,0-.06-.03.659.659,0,0,0-.14-.053l-7.448-2.246c-.814-.245-2.264-1.058-3.023-.326a3.7,3.7,0,0,0-.646,1.451l-.693,1.94q-.635,1.778-1.271,3.556c-.39,1.089-.6,1.7.418,2.422l6.432,4.542c0,.02,0,.039,0,.057l-3.808-.094a1.877,1.877,0,0,0,.117-1.2c-.252-.792-1.3-.81-1.965-.957-.611-.134-1.7-.618-2.3-.287-.759.415-.927,1.476-1.214,2.229l-1.058,2.777A1.161,1.161,0,0,0,183.6-922a2.426,2.426,0,0,0,1.174.146l1.716.046,3.432.092,6.519.175c.78.021,1.53.177,2.008-.553a3.021,3.021,0,0,0,.238-1.16q.12-.826.239-1.651.1-.66.191-1.321a4.539,4.539,0,0,0,.171-1.5c-.211-.858-1.237-1.32-1.9-1.808l-5.144-3.775.586-1.737,1.836.637c-.237.807-.427,1.792.56,2.077l1.893.546c.5.144,1.253.539,1.782.384,1.126-.33,1.021-1.758,1.186-2.721C200.267-935.139,200.936-936.692,199.842-937.372Z" transform="translate(-147.639 -47.199)"/><path d="M200.9-935.353l-9.446-2.849a.447.447,0,0,0-.547.3l-2.657,7.435a.444.444,0,0,0,.193.5l7.055,4.983q-.039.528-.078,1.056l-5.375-.132q.234-.669.468-1.337a.441.441,0,0,0-.3-.547l-2.811-.62a.452.452,0,0,0-.548.3q-.882,2.314-1.764,4.627a.364.364,0,0,0,.139.46.415.415,0,0,0,.275.1l13.383.361a.45.45,0,0,0,.448-.433q.359-2.476.717-4.953a.44.44,0,0,0-.211-.384l-6.974-5.119.953-2.823,3.065,1.062q-.184.656-.366,1.312a.446.446,0,0,0,.3.548l3.156.911a.442.442,0,0,0,.548-.3q.337-1.957.675-3.915A.45.45,0,0,0,200.9-935.353Z" transform="translate(-149.038 -48.654)" fill="#fff"/><path d="M154.43-946.918a.662.662,0,0,0-.139-.023l-.029,0-.019,0h-2.017a10.585,10.585,0,0,0-2.193.023c-1.087.245-1.292,1.884-1.617,2.767l-2.541,6.9q-1.027-2.677-2.053-5.354-.676-1.761-1.352-3.524c-.362-.944-1.261-.808-2.112-.808H136.5c-1.035,0-1.106,1-1.065,1.773q.044.84.088,1.681a3.523,3.523,0,0,0,.2,1.548c.429.733,1.483.628,2.3.579q1.917,4.563,3.833,9.126c.2.472.382,1.411.807,1.742a3.186,3.186,0,0,0,1.825.446l2.752.258c.628.059,1.657.376,2.24.034.486-.285.6-.845.771-1.338q.458-1.314.916-2.629l1.719-4.928q.859-2.464,1.719-4.928C154.966-944.581,156.061-946.5,154.43-946.918Zm-3.036,8.571q-.687,1.972-1.375,3.943l-.687,1.971c-.221.633-.243,1.492-1.049,1.417l-3.785-.356c-.239-.022-.83.041-.954-.256l-.4-.963-.809-1.926q-1.618-3.851-3.235-7.7a.683.683,0,0,0-.637-.485h-.89c-.508,0-.674.115-.7-.451-.013-.257-.215-2.469-.011-2.469h3.853c.628,0,.652.266.857.8l3.686,9.61a.667.667,0,0,0,1.274,0l2.556-6.937q.305-.827.608-1.653c.116-.312.452-1.82.855-1.82h3.479C153.6-945.216,151.625-939.006,151.395-938.346Z" transform="translate(-114.744 -42.59)"/><path d="M155.626-944.377h-4.034a.452.452,0,0,0-.424.323q-1.947,5.286-3.9,10.571l-4.055-10.571a.453.453,0,0,0-.424-.323h-4.9a.442.442,0,0,0-.44.44q.087,1.681.176,3.361a.446.446,0,0,0,.06.206.4.4,0,0,0,.379.234h1.779l4.583,10.912a.467.467,0,0,0,.425.324l5.5.517a.444.444,0,0,0,.425-.324q2.635-7.556,5.27-15.113A.444.444,0,0,0,155.626-944.377Z" transform="translate(-116.138 -44.4)" fill="#fff"/><path d="M-12.939-947.373h-12.9a.768.768,0,0,0-.745.567l-.528,3.381a.846.846,0,0,0,0,.223l-1.762,16.031a.773.773,0,0,0,.772.773h12.9a.79.79,0,0,0,.772-.773q.391-3.176.782-6.352a.774.774,0,0,0-.772-.773l-2.855-.049a.788.788,0,0,0-.772.772q-.212,1.9-.423,3.793h-5.909q.79-6.643,1.58-13.286h5.943l-.446,3.447a.772.772,0,0,0,.772.772l2.582-.049a.769.769,0,0,0,.745-.567q.509-3.467,1.018-6.934A.786.786,0,0,0-12.939-947.373Z" transform="translate(-1.199 -42.329)"/></g></svg>