<svg xmlns="http://www.w3.org/2000/svg" xmlns:xlink="http://www.w3.org/1999/xlink" width="117.78" height="47.053" viewBox="0 0 117.78 47.053"><defs><style>.a{fill:#55c84d;}.b{fill:#1d4026;}.c{fill:url(#a);}.d{fill:#e5e5e5;}.e{fill:url(#b);}.f{fill:url(#c);}</style><radialGradient id="a" cx="0.5" cy="0.5" r="1.328" gradientTransform="translate(0 0)" gradientUnits="objectBoundingBox"><stop offset="0" stop-color="#1d4026"/><stop offset="1" stop-color="#060d08"/></radialGradient><linearGradient id="b" y1="0.582" x2="0.888" y2="1" gradientUnits="objectBoundingBox"><stop offset="0" stop-color="#5c8c2a"/><stop offset="1" stop-color="#2e4615"/></linearGradient><linearGradient id="c" x1="0.78" y1="0.925" x2="0.063" y2="0" xlink:href="#b"/></defs><g transform="translate(-743.105 -6)"><g transform="translate(771.393 21.281)"><path d="M73.222,34.776H71.175a.649.649,0,0,0-.634.635q-.528,4.068-1.056,8.137l-5.08-8.2a.641.641,0,0,0-1.159.151l-1.252,3.558a15.419,15.419,0,0,0-.375,3.074q-.538,4.432-1.075,8.864a.635.635,0,0,0,.635.634h2.094a.581.581,0,0,0,.593-.471.707.707,0,0,0,.042-.163q.518-4.22,1.038-8.438l5.875,8.759A.64.64,0,0,0,72,50.991l1.854-15.581A.635.635,0,0,0,73.222,34.776Z" transform="translate(-60.105 -34.277)"/><path class="a" d="M72.736,33.741c-1.678,0-2.969-.341-3.219,1.589q-.5,3.829-.994,7.658l.887-.24-3.3-5.332L64.33,34.544a1.112,1.112,0,0,0-1.981.152,17.332,17.332,0,0,0-.987,2.782,25.483,25.483,0,0,0-.885,5.567q-.418,3.447-.836,6.894c-.223,1.829,1.36,1.6,2.726,1.6,1.648,0,1.545-1.24,1.712-2.6q.427-3.475.855-6.949l-.887.24,5.316,7.925c.442.66.775,1.427,1.673,1.35.82-.07.939-.943,1.015-1.579q.569-4.775,1.136-9.549.269-2.262.538-4.524c.118-.99.243-1.787-.864-2.1a.476.476,0,0,0-.253.918c.646.181-.353,5.537-.432,6.207q-.389,3.267-.778,6.534l-.18,1.508q-.03.251-.06.5.147.765-.695.668l-1.958-2.92-3.638-5.422a.48.48,0,0,0-.886.24q-.274,2.233-.55,4.467c-.139,1.127.042,4.129-1.485,4.129-.835,0-1.421-.116-1.3-1.143q.149-1.231.3-2.462.268-2.216.538-4.432a24.739,24.739,0,0,1,.478-3.932c.175-.6.419-1.189.626-1.779.233-.662.645-2.254,1.424-1l4.573,7.383a.48.48,0,0,0,.886-.24L70.1,38.2q.156-1.2.311-2.393c.178-1.373,1.288-1.116,2.329-1.116A.476.476,0,0,0,72.736,33.741Z" transform="translate(-59.619 -33.718)"/></g><g transform="translate(818.384 21.073)"><path d="M168.731,34.423l-6.557.01a2.35,2.35,0,0,0-1.628.433l-2.758,1.865-.017.014a.585.585,0,0,0-.177.182v0a.626.626,0,0,0-.048.1c0,.006-.006.012-.008.019a.651.651,0,0,0,.28.805.512.512,0,0,0,.428.061l6.654-.1q-1.335,6.556-2.67,13.112a.643.643,0,0,0,.612.8h2.791a.634.634,0,0,0,.612-.466q1.548-8.015,3.1-16.031A.644.644,0,0,0,168.731,34.423Z" transform="translate(-156.997 -33.883)"/><path class="a" d="M168.171,33.341c-2.4,0-4.878-.176-7.264.048a4.446,4.446,0,0,0-1.948.994,13.746,13.746,0,0,0-2.259,1.6c-.619.638-.035,1.538.633,1.8a4.2,4.2,0,0,0,1.305-.014l1.9-.03,3.8-.059-.459-.6-2.274,11.169c-.183.9-.936,2.581.145,3.214a4.113,4.113,0,0,0,1.926.135c.5,0,1.457.2,1.9-.125a1.525,1.525,0,0,0,.66-1.176l.563-2.914q.564-2.915,1.126-5.83t1.126-5.83c.187-.969.475-2.068-.756-2.36-.6-.142-.85.776-.253.918.652.155-2.45,14.352-2.723,15.764-.166.86-1.549.6-2.108.6-1.133,0-.949-.862-.787-1.658q.4-1.942.791-3.885l1.582-7.771a.482.482,0,0,0-.459-.6l-4.753.074c-.174,0-2.267.034-2.19-.14.175-.394.912-.693,1.253-.923.631-.427,1.254-.871,1.906-1.265s1.863-.171,2.572-.172l5.043-.008A.476.476,0,0,0,168.171,33.341Z" transform="translate(-156.437 -33.277)"/></g><g transform="translate(757.686 21.005)"><path d="M44.849,34.859a.646.646,0,0,0-.137-.247.579.579,0,0,0-.474-.219H35.966a.637.637,0,0,0-.548.314,8.3,8.3,0,0,0-1.369,2.933q-.277,2.4-.552,4.8-.323,2.813-.646,5.625c-.123,1.067-.316,1.71.408,2.584.338.408.644,1.018,1.235,1.018h7.14c.526,0,.851-.489,1.194-.831.4-.4,1.117-.867,1.187-1.468q.212-1.826.425-3.652.407-3.481.812-6.963l.2-1.749A6.38,6.38,0,0,0,44.849,34.859ZM40.7,48.4H36.219q.715-5.292,1.43-10.585h4.295Z" transform="translate(-32.262 -33.799)"/><path class="a" d="M44.734,33.953c-.453-.814-1.142-.7-2-.7H38.359c-.948,0-2.625-.349-3.475.149-.787.462-1.29,1.86-1.628,2.665a14.443,14.443,0,0,0-.54,3.792l-.489,4.265c-.154,1.338-.3,2.676-.466,4.012a3.263,3.263,0,0,0,.9,2.539,1.858,1.858,0,0,0,1.729.809h4.2c1.041,0,2.36.261,3.306-.259a6.5,6.5,0,0,0,1.918-1.985c.5-.806.362-2.35.469-3.269q.256-2.2.513-4.394.253-2.178.508-4.356a6.233,6.233,0,0,0-.523-3.152c-.2-.575-1.12-.328-.918.253a6.282,6.282,0,0,1,.591,2.025,28.857,28.857,0,0,1-.378,3.241l-.744,6.384c-.106.9-.023,2.5-.65,3.213A3.2,3.2,0,0,1,40.1,50.531h-3.02c-.782,0-2.867.339-3.49-.217-1.475-1.317-.718-3.55-.522-5.253q.354-3.082.708-6.164a9.038,9.038,0,0,1,.69-3.2c.185-.365.418-.712.63-1.061.4-.653,1.671-.43,2.288-.43h2.92c.584,0,3.288-.344,3.607.23C44.21,34.97,45.032,34.49,44.734,33.953Z" transform="translate(-31.736 -33.133)"/><path class="a" d="M44.087,51.234H39.606l.459.6q.715-5.293,1.43-10.586l-.459.349H45.33l-.476-.475q-.621,5.292-1.243,10.585c-.071.609.881.6.952,0q.621-5.292,1.242-10.585a.476.476,0,0,0-.475-.476H41.035a.472.472,0,0,0-.459.349q-.715,5.293-1.43,10.586a.485.485,0,0,0,.459.6h4.481A.476.476,0,0,0,44.087,51.234Z" transform="translate(-35.65 -37.105)"/></g><g transform="translate(844.734 21.034)"><path d="M226.085,50.6l-5.693-9.7L217.2,35.466a4.6,4.6,0,0,0-.574-.937c-.49-.49-1.977-.186-2.6-.186a.63.63,0,0,0-.612.466q-1.226,7.973-2.452,15.947a.724.724,0,0,0,0,.2.6.6,0,0,0,.611.6h2.477a.649.649,0,0,0,.634-.634q.165-1.342.331-2.685h3.777a.641.641,0,0,0,.548-.954c-.323-.573-.8-2.084-1.587-2.117l-2.516-.105q.384-2.678.767-5.357l4,6.724,2.6,4.366c.649,1.092,1.763.763,2.944.763A.64.64,0,0,0,226.085,50.6Z" transform="translate(-210.479 -33.752)"/><path class="a" d="M225.965,49.807l-7.657-13.047c-.534-.91-1.07-1.818-1.581-2.741a1.548,1.548,0,0,0-1.29-.779c-1.331-.1-2.85-.178-3.09,1.384q-1.187,7.725-2.375,15.449c-.3,1.932,2.44,1.406,3.547,1.406,1.566,0,1.322-2.829,1.441-3.8l-.476.476a20.047,20.047,0,0,0,4.17-.076c.655-.145.772-.966.613-1.481a6.245,6.245,0,0,0-1.132-2.019c-.706-.847-2.487-.513-3.43-.552l.459.6q.384-2.678.767-5.356l-.869.114,6.356,10.692a2.68,2.68,0,0,0,2.894,1.421c.989-.048,2.109-.315,1.7-1.582-.186-.582-1.1-.333-.918.253.147.457-1.277.4-1.448.4-.894.012-1.253-.705-1.646-1.367l-1.887-3.175-4.232-7.12c-.191-.321-.808-.315-.869.114q-.384,2.678-.767,5.356a.486.486,0,0,0,.459.6l2.013.084c.877.036,1.061.6,1.378,1.273.438.925-.554.868-1.251.868h-2.361a.486.486,0,0,0-.475.475l-.276,2.238c-.113.912-2.922.916-2.767-.093l.843-5.482q.422-2.741.843-5.482.192-1.245.383-2.491c.142-.927.069-2.063,1.206-2.163.534-.047,1.291-.2,1.666.29a18.646,18.646,0,0,1,1.09,1.9l2.7,4.6,5.446,9.279A.476.476,0,0,0,225.965,49.807Z" transform="translate(-209.948 -33.195)"/></g><path class="b" d="M226.085,50.6l-5.693-9.7L217.2,35.466a4.6,4.6,0,0,0-.574-.937c-.49-.49-1.977-.186-2.6-.186a.63.63,0,0,0-.612.466q-1.226,7.973-2.452,15.947a.724.724,0,0,0,0,.2.6.6,0,0,0,.611.6h2.477a.649.649,0,0,0,.634-.634q.165-1.342.331-2.685h3.777a.641.641,0,0,0,.548-.954c-.323-.573-.8-2.084-1.587-2.117l-2.516-.105q.384-2.678.767-5.357l4,6.724,2.6,4.366c.649,1.092,1.763.763,2.944.763A.64.64,0,0,0,226.085,50.6Z" transform="translate(634.255 -12.718)"/><path class="b" d="M168.731,34.423l-6.557.01a2.35,2.35,0,0,0-1.628.433l-2.758,1.865-.017.014a.585.585,0,0,0-.177.182v0a.626.626,0,0,0-.048.1c0,.006-.006.012-.008.019a.651.651,0,0,0,.28.805.512.512,0,0,0,.428.061l6.654-.1q-1.335,6.556-2.67,13.112a.643.643,0,0,0,.612.8h2.791a.634.634,0,0,0,.612-.466q1.548-8.015,3.1-16.031A.644.644,0,0,0,168.731,34.423Z" transform="translate(661.387 -12.81)"/><path class="a" d="M123.085,1.35a.545.545,0,0,0-.694.256L117.123,11.92l-1.662-2.756a.546.546,0,0,0-.411-.261.552.552,0,0,0-.455.171l-5.414,5.811a1.822,1.822,0,0,0-.522.019H107.12c-.162,0-.34-.011-.525-.023-.223-.013-.455-.027-.682-.027a2.974,2.974,0,0,0-.986.137c-1.438.5-1.836,1.66-2.221,2.782-.058.168-.116.338-.179.508l-.869,2.357-.607-1.583c-.1-.253-.187-.535-.28-.827a6.4,6.4,0,0,0-1.295-2.616,3.183,3.183,0,0,0-2.34-.752c-.26,0-.52.012-.77.024-.215.01-.422.02-.615.02a34.09,34.09,0,0,0-3.45.346c-1.332.781-1.26,2.148-1.2,3.246l0,.085c.01.2.013.407.016.617a4.315,4.315,0,0,0,.731,2.88,2.4,2.4,0,0,0,1.859.881l3.1,7.383c.043.1.086.211.129.32a5.489,5.489,0,0,0,.588,1.194l-5.77,15.771a.545.545,0,0,0,.972.48l6.012-9.473,1.525,2.745a.546.546,0,0,0,.913.063l4.21-5.614a8.588,8.588,0,0,0,1.349.042c.13,0,.254,0,.371,0l9.9.264h.124c2.568,0,2.842-2.132,3.062-3.845.024-.188.048-.376.075-.562.032-.22.082-.46.132-.708a5.563,5.563,0,0,0,.147-2.345,2.83,2.83,0,0,0-.985-1.5c1.3-.581,1.505-2.017,1.66-3.09.025-.175.05-.348.08-.514s.055-.3.083-.457c.236-1.242.529-2.788-.874-3.8-.039-.029-.078-.058-.121-.086l-.068-.047a2.164,2.164,0,0,0-.8-.307l-1.414-.427L123.4,2.021A.546.546,0,0,0,123.085,1.35Z" transform="translate(696.269 4.691)"/><path class="c" d="M120.8,20.359c-.028-.021-.057-.041-.087-.061s-.039-.029-.061-.042a1.6,1.6,0,0,0-.631-.237l-1.984-.6,5.456-16.955-5.715,11.188-2.168-3.6-5.613,6.025a1.478,1.478,0,0,0-.668-.022h-1.592a6.75,6.75,0,0,0-2.014.057c-1.379.479-1.605,1.712-2.066,2.963L102.281,22.8l-1.127-2.938c-.388-1.012-.666-2.467-1.451-3.252-.821-.821-2.295-.549-3.339-.549-.123,0-3.152.259-3.175.272-1.075.629-.984,1.756-.928,2.832.056,1.051-.1,2.319.619,3.174a2.05,2.05,0,0,0,1.807.7l3.237,7.709a5.352,5.352,0,0,0,.833,1.624l-5.876,16.06,3.5-5.52,3-4.728,1.971,3.548,4.41-5.881a11.115,11.115,0,0,0,2.123.088l3.39.091,6.357.171c2.434.066,2.435-2.062,2.706-3.938a8.317,8.317,0,0,0,.289-2.845c-.239-.976-1.106-1.436-1.866-1.988a2.079,2.079,0,0,0,.881-.031c1.5-.413,1.514-2.042,1.732-3.309C121.615,22.713,122.071,21.276,120.8,20.359ZM100.963,35.813l-1.985-3.248a1.654,1.654,0,0,0,.15.108,5.431,5.431,0,0,0,2.259.416l.619.058Zm13.963-17.329,1.27-2.617,1.658,3.5Z" transform="translate(695.658 4.08)"/><path class="d" d="M135.1,40.5h0a1.026,1.026,0,0,0-.164-.068l-6.117-1.845c-.669-.2-1.86-.868-2.482-.268a3.047,3.047,0,0,0-.53,1.192l-.569,1.593-1.044,2.92c-.32.894-.5,1.4.343,1.988l5.283,3.73c0,.016,0,.032,0,.047l-3.127-.077a1.541,1.541,0,0,0,.1-.984c-.207-.65-1.064-.665-1.614-.786-.5-.11-1.4-.507-1.893-.236-.623.341-.761,1.212-1,1.83l-.869,2.281a.954.954,0,0,0,.354,1.309,2,2,0,0,0,.964.12l1.41.038,2.818.076,5.354.144c.641.017,1.257.145,1.649-.454a2.476,2.476,0,0,0,.2-.953q.1-.678.2-1.356.078-.542.157-1.084a3.718,3.718,0,0,0,.14-1.23c-.173-.7-1.016-1.084-1.562-1.485l-4.225-3.1.481-1.426,1.508.523c-.195.663-.351,1.472.46,1.706l1.555.448c.408.118,1.029.443,1.463.315.925-.271.838-1.444.975-2.235C135.449,42.33,136,41.054,135.1,40.5Z" transform="translate(680.298 -14.736)"/><path class="e" d="M135.393,41.557l-7.758-2.34a.368.368,0,0,0-.45.245L125,45.569a.364.364,0,0,0,.158.411l5.795,4.093q-.033.434-.065.868l-4.414-.108q.192-.55.384-1.1a.362.362,0,0,0-.245-.449l-2.309-.51a.371.371,0,0,0-.449.245q-.725,1.9-1.448,3.8a.3.3,0,0,0,.115.377.336.336,0,0,0,.226.086l10.991.3a.37.37,0,0,0,.368-.355q.294-2.034.589-4.068a.361.361,0,0,0-.173-.315l-5.728-4.2q.393-1.159.783-2.318l2.517.873q-.151.538-.3,1.077a.365.365,0,0,0,.244.449l2.592.749a.363.363,0,0,0,.449-.245l.555-3.215A.37.37,0,0,0,135.393,41.557Z" transform="translate(679.733 -15.331)"/><path class="d" d="M111.279,34.544a.539.539,0,0,0-.115-.018l-.024,0h-1.672a8.7,8.7,0,0,0-1.8.019c-.893.2-1.061,1.547-1.328,2.273l-2.086,5.663-1.687-4.4q-.555-1.446-1.11-2.894c-.3-.775-1.036-.664-1.735-.664H96.556c-.849,0-.908.824-.874,1.456q.035.69.072,1.381a2.892,2.892,0,0,0,.167,1.271c.352.6,1.218.516,1.891.476q1.575,3.747,3.149,7.5c.163.388.314,1.159.662,1.431a2.618,2.618,0,0,0,1.5.367l2.261.212c.516.049,1.36.309,1.839.028.4-.233.492-.694.633-1.1q.376-1.079.753-2.159l1.412-4.047,1.411-4.047C111.719,36.463,112.618,34.888,111.279,34.544Zm-2.493,7.039-1.129,3.238q-.282.81-.564,1.619c-.181.521-.2,1.225-.861,1.164l-3.109-.292c-.2-.019-.682.033-.784-.21-.111-.264-.222-.527-.332-.791l-.664-1.581L98.686,38.4a.561.561,0,0,0-.523-.4h-.73c-.417,0-.554.094-.579-.371-.011-.211-.177-2.027-.009-2.027h3.164c.516,0,.535.219.7.657l3.027,7.893a.547.547,0,0,0,1.046,0q1.05-2.849,2.1-5.7l.5-1.357c.095-.257.372-1.5.7-1.5h2.857A61.081,61.081,0,0,0,108.786,41.583Z" transform="translate(693.839 -12.84)"/><path class="f" d="M111.69,35.889h-3.314a.371.371,0,0,0-.348.265q-1.6,4.341-3.2,8.683l-3.33-8.683a.372.372,0,0,0-.348-.265H97.122a.364.364,0,0,0-.362.362q.072,1.381.145,2.76a.37.37,0,0,0,.049.169.328.328,0,0,0,.312.192h1.461l3.764,8.962a.384.384,0,0,0,.349.265l4.521.424a.365.365,0,0,0,.349-.265q2.163-6.206,4.328-12.412A.365.365,0,0,0,111.69,35.889Z" transform="translate(693.265 -13.584)"/><path class="b" d="M73.222,34.776H71.175a.649.649,0,0,0-.634.635q-.528,4.068-1.056,8.137l-5.08-8.2a.641.641,0,0,0-1.159.151l-1.252,3.558a15.419,15.419,0,0,0-.375,3.074q-.538,4.432-1.075,8.864a.635.635,0,0,0,.635.634h2.094a.581.581,0,0,0,.593-.471.707.707,0,0,0,.042-.163q.518-4.22,1.038-8.438l5.875,8.759A.64.64,0,0,0,72,50.991l1.854-15.581A.635.635,0,0,0,73.222,34.776Z" transform="translate(711.288 -12.996)"/><g transform="translate(829.739 21.119)"><path d="M194.013,35.8c-.451-.538-.8-1.247-1.561-1.249l-2.837-.006-5.764-.012a.65.65,0,0,0-.635.635q-.146,1.1-.291,2.192a.487.487,0,0,0,.35.572.634.634,0,0,0,.284.062l6.93-.045q.007.748.013,1.5c0-.14-.261.628-.327.8l-.177.474-7.187.082a.634.634,0,0,0-.612.465q-.943,4.838-1.887,9.676a.643.643,0,0,0,.612.8H183.4a.631.631,0,0,0,.612-.466q.566-3.4,1.131-6.795l2.373-.047,1.766,6.842a.638.638,0,0,0,.612.466h2.73a.64.64,0,0,0,.612-.8l-2.027-6.4c1.071-.951,2.492-1.9,2.719-3.32q.289-1.8.578-3.6A1.775,1.775,0,0,0,194.013,35.8Z" transform="translate(-179.843 -33.985)"/><path class="a" d="M193.838,34.85c-.36-.455-.822-1.241-1.469-1.329a24.488,24.488,0,0,0-3.266-.065l-3.842-.008c-.776,0-2.078-.3-2.7.323-.489.489-.423,1.48-.506,2.1-.1.757-.289,1.445.47,1.86s2.162.117,3,.111l4.455-.029-.476-.476.008,1c0,.406.227-.157.041.272-.195.451-.352.917-.524,1.377l.459-.349-4.791.054c-.906.01-2.5-.331-3.221.389-.344.344-.349.985-.435,1.421q-.236,1.209-.471,2.419l-.943,4.838c-.176.9-.641,1.947.16,2.648a1.7,1.7,0,0,0,1.122.209,10.243,10.243,0,0,0,2.107-.017c1.1-.248,1.029-1.31,1.186-2.254q.445-2.669.889-5.338l-.459.349L187,44.3l-.459-.349q.63,2.444,1.261,4.887c.254.984.258,2.485,1.448,2.753a9.489,9.489,0,0,0,1.947.017,2.936,2.936,0,0,0,1.432-.135c1.028-.6.383-1.794.114-2.642l-1.448-4.57c-.117-.37.891-.988,1.142-1.218a5.559,5.559,0,0,0,1.178-1.522c.641-1.215.616-3.043.832-4.387a2.568,2.568,0,0,0-.615-2.289c-.381-.481-1.05.2-.673.672.873,1.1.071,3.227-.136,4.516-.269,1.671-1.466,2.516-2.669,3.561a.466.466,0,0,0-.122.463l1.158,3.656.579,1.828c.333,1.053-.425,1.115-1.229,1.115-.9,0-1.509-.083-1.77-1.094q-.252-.977-.5-1.954l-1.009-3.91a.477.477,0,0,0-.459-.349l-2.373.048a.475.475,0,0,0-.459.349q-.485,2.912-.969,5.824A1.155,1.155,0,0,1,181.9,50.66c-.372,0-1.72.219-1.544-.685q.33-1.693.66-3.387.284-1.451.567-2.9c.223-1.146.148-3.013,1.678-3.03l6.228-.071a.488.488,0,0,0,.458-.349,5.521,5.521,0,0,0,.286-.993.467.467,0,0,0,.235-.411q-.006-.748-.013-1.5a.48.48,0,0,0-.476-.476l-4.949.033-.99.006c-.613,0-1.192.179-1.091-.59.126-.95.1-1.912,1.352-1.91l4.8.01,2.364,0c.951,0,1.178.454,1.7,1.109C193.546,36,194.215,35.325,193.838,34.85Z" transform="translate(-179.331 -33.375)"/></g><path class="b" d="M193.89,35.714c-.452-.538-.8-1.247-1.561-1.248l-2.837-.006-5.764-.012a.649.649,0,0,0-.635.634q-.145,1.1-.291,2.192a.487.487,0,0,0,.349.572.629.629,0,0,0,.285.062l6.93-.045q.006.749.013,1.5c0-.14-.261.628-.327.8l-.177.474-7.188.082a.636.636,0,0,0-.612.466q-.943,4.838-1.887,9.677a.644.644,0,0,0,.612.8h2.476a.631.631,0,0,0,.612-.466q.565-3.4,1.131-6.795l2.373-.048q.883,3.421,1.766,6.842a.639.639,0,0,0,.612.466h2.73a.64.64,0,0,0,.612-.8l-2.027-6.4c1.072-.951,2.492-1.9,2.719-3.319q.289-1.8.579-3.6A1.777,1.777,0,0,0,193.89,35.714Z" transform="translate(649.961 -12.823)"/><g transform="translate(743.105 21.017)"><path d="M16.029,34.277H5.432a.63.63,0,0,0-.612.465q-.217,1.389-.434,2.777a.667.667,0,0,0,0,.183Q3.66,44.286,2.937,50.869a.635.635,0,0,0,.635.635H14.163a.649.649,0,0,0,.634-.635l.642-5.217a.636.636,0,0,0-.635-.634l-2.344-.041a.647.647,0,0,0-.634.635q-.174,1.557-.347,3.115H6.626q.649-5.456,1.3-10.912H12.8q-.184,1.416-.366,2.831a.633.633,0,0,0,.634.634l2.121-.04a.631.631,0,0,0,.612-.466q.418-2.847.836-5.694A.646.646,0,0,0,16.029,34.277Z" transform="translate(-2.494 -33.75)"/><path class="a" d="M15.536,33.211H6.452c-.586,0-2.051-.277-2.416.459a8.765,8.765,0,0,0-.62,3.259c-.038,2.8-.607,5.689-.913,8.473L2.021,49.79c-.091.829.093,1.347.93,1.581a6.778,6.778,0,0,0,1.639.017h7.061c.794,0,2.158.311,2.8-.328.594-.594.471-1.929.564-2.68.143-1.16.588-2.622.316-3.764-.189-.792-1.4-.673-1.955-.682-.763-.013-1.884-.274-2.354.529a3.774,3.774,0,0,0-.262,1.447q-.124,1.112-.248,2.225l.476-.476H6.132l.476.476q.648-5.456,1.3-10.912L7.43,37.7h4.881l-.476-.476c-.127.984-.929,3.134.191,3.79a3.637,3.637,0,0,0,1.826.127,2.231,2.231,0,0,0,1.677-.378c.43-.43.371-1.329.452-1.877q.209-1.424.418-2.847c.151-1.034.637-2.489-.735-2.812-.6-.141-.851.777-.253.918.575.135-.34,4.435-.417,4.963-.176,1.2-1.044,1.08-1.989,1.1-.917.017-.274-2.537-.216-2.982a.476.476,0,0,0-.476-.476H7.43a.487.487,0,0,0-.476.476q-.649,5.456-1.3,10.912a.476.476,0,0,0,.476.476h4.853a.487.487,0,0,0,.476-.476q.124-1.113.248-2.225a1.037,1.037,0,0,1,1.2-1.033c.381.007,1.61-.175,1.507.657q-.175,1.422-.35,2.845L13.886,49.8c-.1.842-1.233.633-1.729.633H3.582c-1.039,0-.4-2.556-.341-3.085.41-3.731.676-7.514,1.255-11.223q.109-.695.217-1.389c.122-.778,1.266-.579,1.739-.579h9.083A.476.476,0,0,0,15.536,33.211Z" transform="translate(-2 -33.159)"/><path class="b" d="M16.029,34.277H5.432a.63.63,0,0,0-.612.465q-.217,1.389-.434,2.777a.667.667,0,0,0,0,.183Q3.66,44.286,2.937,50.869a.635.635,0,0,0,.635.635H14.163a.649.649,0,0,0,.634-.635l.642-5.217a.636.636,0,0,0-.635-.634l-2.344-.041a.647.647,0,0,0-.634.635q-.174,1.557-.347,3.115H6.626q.649-5.456,1.3-10.912H12.8q-.184,1.416-.366,2.831a.633.633,0,0,0,.634.634l2.121-.04a.631.631,0,0,0,.612-.466q.418-2.847.836-5.694A.646.646,0,0,0,16.029,34.277Z" transform="translate(-2.494 -33.75)"/></g><path class="b" d="M44.849,34.859a.646.646,0,0,0-.137-.247.579.579,0,0,0-.474-.219H35.966a.637.637,0,0,0-.548.314,8.3,8.3,0,0,0-1.369,2.933q-.277,2.4-.552,4.8-.323,2.813-.646,5.625c-.123,1.067-.316,1.71.408,2.584.338.408.644,1.018,1.235,1.018h7.14c.526,0,.851-.489,1.194-.831.4-.4,1.117-.867,1.187-1.468q.212-1.826.425-3.652.407-3.481.812-6.963l.2-1.749A6.38,6.38,0,0,0,44.849,34.859ZM40.7,48.4H36.219q.715-5.292,1.43-10.585h4.295Z" transform="translate(725.424 -12.794)"/></g></svg>