<svg xmlns="http://www.w3.org/2000/svg" xmlns:xlink="http://www.w3.org/1999/xlink" width="210.265" height="84" viewBox="0 0 210.265 84"><defs><style>.a{fill:#55c84d;}.b{fill:#1d4026;}.c{fill:url(#a);}.d{fill:#e5e5e5;}.e{fill:url(#b);}.f{fill:url(#c);}</style><radialGradient id="a" cx="0.5" cy="0.5" r="1.328" gradientTransform="translate(0 0)" gradientUnits="objectBoundingBox"><stop offset="0" stop-color="#1d4026"/><stop offset="1" stop-color="#060d08"/></radialGradient><linearGradient id="b" y1="0.582" x2="0.888" y2="1" gradientUnits="objectBoundingBox"><stop offset="0" stop-color="#5c8c2a"/><stop offset="1" stop-color="#2e4615"/></linearGradient><linearGradient id="c" x1="0.78" y1="0.925" x2="0.063" y2="0" xlink:href="#b"/></defs><g transform="translate(-743.105 -6)"><g transform="translate(793.606 33.28)"><path d="M83.181,34.776H79.527a1.159,1.159,0,0,0-1.132,1.133q-.943,7.263-1.885,14.526L67.44,35.79a1.144,1.144,0,0,0-2.07.27q-1.117,3.177-2.236,6.353c-.57,1.62-.465,3.8-.67,5.487q-.96,7.912-1.92,15.824a1.134,1.134,0,0,0,1.133,1.132h3.739a1.037,1.037,0,0,0,1.058-.841,1.263,1.263,0,0,0,.076-.291Q67.476,56.19,68.4,48.66,73.648,56.477,78.892,64.3A1.143,1.143,0,0,0,81,63.724l3.311-27.815A1.133,1.133,0,0,0,83.181,34.776Z" transform="translate(-59.765 -33.885)"/><path class="a" d="M83.035,33.759c-2.995,0-5.3-.609-5.747,2.837q-.888,6.836-1.774,13.672l1.583-.428L71.2,40.32l-3.174-5.126a1.985,1.985,0,0,0-3.537.271,30.941,30.941,0,0,0-1.763,4.967c-1.141,3.242-1.167,6.547-1.579,9.938q-.746,6.154-1.493,12.308c-.4,3.265,2.428,2.86,4.867,2.86,2.942,0,2.758-2.214,3.057-4.641q.763-6.2,1.527-12.406l-1.583.428,9.49,14.148c.79,1.178,1.384,2.547,2.986,2.41,1.464-.125,1.677-1.684,1.812-2.818q1.015-8.524,2.029-17.048.481-4.039.961-8.077c.21-1.767.433-3.191-1.542-3.746a.85.85,0,0,0-.452,1.638c1.153.323-.63,9.885-.772,11.081q-.694,5.832-1.389,11.665l-.321,2.692q-.053.448-.107.9.263,1.365-1.24,1.193l-3.5-5.212-6.494-9.68a.857.857,0,0,0-1.582.429q-.49,3.987-.981,7.975c-.247,2.013.075,7.371-2.651,7.371-1.491,0-2.536-.206-2.313-2.04q.266-2.2.534-4.4.479-3.956.96-7.912c.28-2.31.2-4.781.853-7.019.312-1.072.747-2.123,1.118-3.176.416-1.181,1.152-4.024,2.542-1.779L75.632,50.7a.856.856,0,0,0,1.582-.428l1.109-8.545q.278-2.136.555-4.273c.318-2.451,2.3-1.992,4.158-1.992A.85.85,0,0,0,83.035,33.759Z" transform="translate(-59.619 -33.718)"/></g><g transform="translate(877.496 32.909)"><path d="M177.553,34.423l-11.705.018a4.2,4.2,0,0,0-2.906.774l-4.923,3.33c-.011.008-.019.016-.029.024a1.044,1.044,0,0,0-.316.324v0a1.116,1.116,0,0,0-.086.174c-.005.011-.011.022-.015.034a1.162,1.162,0,0,0,.5,1.438.913.913,0,0,0,.764.109l11.879-.185q-2.383,11.7-4.766,23.409a1.148,1.148,0,0,0,1.093,1.433h4.983a1.131,1.131,0,0,0,1.093-.832q2.764-14.309,5.529-28.62A1.15,1.15,0,0,0,177.553,34.423Z" transform="translate(-156.605 -33.458)"/><path class="a" d="M177.385,33.392c-4.279.007-8.709-.314-12.969.085-1.327.124-2.419,1.058-3.477,1.774a24.538,24.538,0,0,0-4.034,2.859c-1.1,1.14-.063,2.747,1.13,3.206a7.494,7.494,0,0,0,2.33-.025l3.394-.053,6.788-.105-.819-1.075Q167.7,50.03,165.668,60c-.327,1.6-1.672,4.607.258,5.737.926.543,2.436.241,3.439.241.884,0,2.6.354,3.393-.224a2.722,2.722,0,0,0,1.178-2.1l1.005-5.2q1.006-5.2,2.01-10.408t2.011-10.407c.334-1.73.848-3.692-1.35-4.213-1.066-.253-1.518,1.386-.452,1.638,1.164.277-4.375,25.622-4.862,28.142-.3,1.535-2.766,1.075-3.763,1.075-2.024,0-1.694-1.54-1.406-2.96q.707-3.467,1.412-6.935,1.412-6.937,2.824-13.873a.86.86,0,0,0-.819-1.075l-8.485.132c-.311,0-4.048.061-3.91-.25.312-.7,1.628-1.237,2.237-1.648,1.127-.762,2.238-1.555,3.4-2.258,1.138-.689,3.327-.3,4.591-.306l9-.014A.85.85,0,0,0,177.385,33.392Z" transform="translate(-156.437 -33.277)"/></g><g transform="translate(769.135 32.788)"><path d="M54.364,35.225a1.153,1.153,0,0,0-.245-.44,1.034,1.034,0,0,0-.847-.391H38.5a1.137,1.137,0,0,0-.978.561c-.939,1.676-2.223,3.3-2.444,5.236q-.494,4.289-.985,8.577-.577,5.021-1.153,10.042c-.219,1.9-.564,3.052.728,4.614.6.728,1.15,1.818,2.205,1.818H48.625c.939,0,1.519-.874,2.131-1.483.713-.708,1.994-1.548,2.12-2.62q.379-3.26.759-6.52.726-6.215,1.449-12.43l.364-3.122C55.583,37.913,54.7,36.318,54.364,35.225ZM46.957,59.405h-8q1.276-9.448,2.552-18.9h7.667Z" transform="translate(-31.894 -33.333)"/><path class="a" d="M54.94,34.6c-.808-1.454-2.04-1.252-3.564-1.252H43.559c-1.692,0-4.687-.623-6.2.266-1.406.824-2.3,3.32-2.907,4.758-.839,2-.721,4.643-.965,6.769l-.874,7.614c-.274,2.389-.544,4.777-.832,7.163-.228,1.879.519,3.078,1.609,4.532a3.318,3.318,0,0,0,3.086,1.444h7.5c1.858,0,4.214.465,5.9-.462A11.6,11.6,0,0,0,53.3,61.884c.885-1.439.646-4.2.838-5.836q.457-3.922.915-7.845.452-3.889.907-7.776a11.127,11.127,0,0,0-.933-5.628c-.358-1.027-2-.586-1.639.452a11.216,11.216,0,0,1,1.055,3.614,51.517,51.517,0,0,1-.674,5.785l-1.328,11.4c-.189,1.615-.04,4.457-1.161,5.736-1.3,1.484-2.547,2.408-4.608,2.408H41.278c-1.4,0-5.118.606-6.23-.387-2.634-2.352-1.281-6.338-.932-9.379q.631-5.5,1.263-11a16.135,16.135,0,0,1,1.231-5.716c.33-.652.746-1.271,1.125-1.895.71-1.166,2.984-.768,4.084-.768h5.213c1.043,0,5.87-.614,6.439.411C54,36.412,55.472,35.556,54.94,34.6Z" transform="translate(-31.736 -33.133)"/><path class="a" d="M47.971,59.547h-8q.41.537.819,1.075,1.276-9.449,2.552-18.9l-.819.624h7.667l-.85-.848q-1.109,9.448-2.219,18.9c-.127,1.087,1.572,1.075,1.7,0q1.109-9.448,2.218-18.9a.849.849,0,0,0-.848-.85H42.523a.842.842,0,0,0-.819.624q-1.277,9.449-2.552,18.9a.865.865,0,0,0,.819,1.075h8A.849.849,0,0,0,47.971,59.547Z" transform="translate(-32.908 -34.322)"/></g><g transform="translate(924.538 32.84)"><path d="M237.968,63.447q-5.082-8.66-10.164-17.32-2.848-4.852-5.7-9.707a8.206,8.206,0,0,0-1.024-1.673c-.875-.875-3.53-.332-4.648-.332a1.125,1.125,0,0,0-1.092.832q-2.188,14.235-4.378,28.469a1.294,1.294,0,0,0,0,.361,1.062,1.062,0,0,0,1.091,1.072h4.422a1.158,1.158,0,0,0,1.132-1.132q.3-2.4.59-4.794h6.743a1.144,1.144,0,0,0,.978-1.7c-.577-1.023-1.432-3.721-2.833-3.779l-4.492-.188q.686-4.782,1.37-9.563L227.1,56l4.634,7.794c1.158,1.949,3.148,1.362,5.257,1.362A1.142,1.142,0,0,0,237.968,63.447Z" transform="translate(-210.107 -33.362)"/><path class="a" d="M238.542,62.851l-13.67-23.293c-.954-1.625-1.911-3.246-2.823-4.894a2.764,2.764,0,0,0-2.3-1.391c-2.375-.173-5.088-.317-5.517,2.471q-2.12,13.792-4.241,27.58c-.531,3.449,4.357,2.509,6.332,2.509,2.8,0,2.359-5.051,2.572-6.775l-.85.85c2.381,0,5.118.38,7.444-.136,1.169-.259,1.379-1.725,1.1-2.643a11.148,11.148,0,0,0-2.021-3.605c-1.26-1.513-4.44-.916-6.123-.986l.819,1.076q.686-4.782,1.369-9.562l-1.552.2L230.42,63.343c1.283,2.158,2.7,2.655,5.167,2.536,1.766-.085,3.766-.562,3.041-2.825-.332-1.039-1.972-.6-1.638.452.262.816-2.279.707-2.586.71-1.6.022-2.237-1.259-2.939-2.44l-3.37-5.668L220.54,43.4c-.341-.572-1.443-.563-1.552.2q-.686,4.782-1.37,9.562a.868.868,0,0,0,.819,1.076l3.593.15c1.565.065,1.894,1.08,2.46,2.273.782,1.651-.99,1.55-2.234,1.55h-4.215a.868.868,0,0,0-.848.848l-.492,3.995c-.2,1.629-5.216,1.636-4.939-.167l1.505-9.786q.753-4.894,1.5-9.787.343-2.223.684-4.448c.254-1.656.123-3.683,2.152-3.861.954-.083,2.306-.356,2.975.518a33.286,33.286,0,0,1,1.946,3.4l4.825,8.22,9.722,16.565A.85.85,0,0,0,238.542,62.851Z" transform="translate(-209.948 -33.195)"/></g><path class="b" d="M237.968,63.447q-5.082-8.66-10.164-17.32-2.848-4.852-5.7-9.707a8.206,8.206,0,0,0-1.024-1.673c-.875-.875-3.53-.332-4.648-.332a1.125,1.125,0,0,0-1.092.832q-2.188,14.235-4.378,28.469a1.294,1.294,0,0,0,0,.361,1.062,1.062,0,0,0,1.091,1.072h4.422a1.158,1.158,0,0,0,1.132-1.132q.3-2.4.59-4.794h6.743a1.144,1.144,0,0,0,.978-1.7c-.577-1.023-1.432-3.721-2.833-3.779l-4.492-.188q.686-4.782,1.37-9.563L227.1,56l4.634,7.794c1.158,1.949,3.148,1.362,5.257,1.362A1.142,1.142,0,0,0,237.968,63.447Z" transform="translate(714.431 -0.522)"/><path class="b" d="M177.553,34.423l-11.705.018a4.2,4.2,0,0,0-2.906.774l-4.923,3.33c-.011.008-.019.016-.029.024a1.044,1.044,0,0,0-.316.324v0a1.116,1.116,0,0,0-.086.174c-.005.011-.011.022-.015.034a1.162,1.162,0,0,0,.5,1.438.913.913,0,0,0,.764.109l11.879-.185q-2.383,11.7-4.766,23.409a1.148,1.148,0,0,0,1.093,1.433h4.983a1.131,1.131,0,0,0,1.093-.832q2.764-14.309,5.529-28.62A1.15,1.15,0,0,0,177.553,34.423Z" transform="translate(720.892 -0.55)"/><path class="a" d="M148.221,1.382a.974.974,0,0,0-1.238.457l-9.406,18.414-2.967-4.92a.975.975,0,0,0-.733-.466.985.985,0,0,0-.813.306L123.4,25.547a3.252,3.252,0,0,0-.932.034H119.72c-.289,0-.607-.019-.937-.041-.4-.024-.812-.048-1.217-.048a5.309,5.309,0,0,0-1.76.244c-2.567.891-3.278,2.963-3.965,4.966-.1.3-.207.6-.32.907l-1.551,4.209-1.083-2.827c-.173-.451-.333-.955-.5-1.476a11.43,11.43,0,0,0-2.311-4.67A5.682,5.682,0,0,0,101.9,25.5c-.464,0-.928.021-1.375.042-.384.018-.754.035-1.1.035a60.859,60.859,0,0,0-6.159.618c-2.379,1.394-2.249,3.834-2.145,5.8l.008.152c.019.355.023.726.028,1.1.021,1.71.044,3.649,1.306,5.142a4.286,4.286,0,0,0,3.318,1.573l5.534,13.18c.077.184.154.377.23.571a9.8,9.8,0,0,0,1.05,2.132L92.295,84a.973.973,0,0,0,1.736.856l10.733-16.912,2.723,4.9a.974.974,0,0,0,1.63.112l7.517-10.022a15.331,15.331,0,0,0,2.408.075c.232,0,.454-.008.662-.008l17.672.471.221,0c4.584,0,5.074-3.806,5.467-6.864.043-.336.085-.672.134-1,.057-.393.146-.821.236-1.263a9.931,9.931,0,0,0,.262-4.186,5.052,5.052,0,0,0-1.758-2.678c2.315-1.038,2.687-3.6,2.964-5.517.045-.313.09-.622.142-.918.046-.271.1-.543.149-.816.421-2.218.944-4.978-1.561-6.777-.07-.052-.14-.1-.216-.153-.02-.015-.1-.071-.121-.084a3.863,3.863,0,0,0-1.429-.548l-2.525-.762L148.776,2.58A.974.974,0,0,0,148.221,1.382Z" transform="translate(731.008 4.691)"/><path class="c" d="M143.225,34.41c-.051-.038-.1-.074-.155-.109-.038-.025-.07-.051-.109-.076a2.86,2.86,0,0,0-1.127-.423l-3.542-1.068,9.74-30.269-10.2,19.974-3.871-6.42-10.02,10.757a2.638,2.638,0,0,0-1.193-.039H119.9a12.051,12.051,0,0,0-3.6.1c-2.462.854-2.866,3.057-3.689,5.29l-2.447,6.639q-1.005-2.622-2.012-5.245c-.693-1.807-1.189-4.4-2.59-5.806-1.466-1.465-4.1-.98-5.961-.98-.22,0-5.628.463-5.667.486-1.919,1.123-1.757,3.135-1.657,5.056.1,1.876-.184,4.141,1.105,5.666a3.66,3.66,0,0,0,3.226,1.243L102.4,52.948a9.555,9.555,0,0,0,1.487,2.9L93.392,84.519l6.254-9.855L105,66.223l3.518,6.333,7.874-10.5a19.844,19.844,0,0,0,3.79.157l6.052.162,11.349.3c4.346.118,4.347-3.682,4.832-7.031.222-1.531.886-3.559.515-5.078-.426-1.742-1.975-2.564-3.332-3.55a3.711,3.711,0,0,0,1.572-.055c2.683-.737,2.7-3.645,3.093-5.906C144.688,38.613,145.5,36.047,143.225,34.41ZM107.818,62l-3.545-5.8a2.954,2.954,0,0,0,.268.192c1.183.693,2.711.62,4.034.743l1.105.1Zm24.928-30.937,2.268-4.672,2.96,6.248Z" transform="translate(730.825 4.508)"/><path class="d" d="M145.939,42.4h0a1.832,1.832,0,0,0-.293-.121l-10.921-3.294c-1.194-.359-3.32-1.55-4.432-.478a5.44,5.44,0,0,0-.947,2.128q-.508,1.422-1.016,2.844l-1.864,5.214c-.572,1.6-.885,2.492.613,3.55l9.431,6.66c0,.029,0,.057-.007.084q-2.792-.067-5.583-.137a2.75,2.75,0,0,0,.172-1.758c-.369-1.161-1.9-1.188-2.881-1.4-.9-.2-2.492-.906-3.379-.421-1.113.609-1.359,2.164-1.779,3.268q-.775,2.037-1.551,4.072a1.7,1.7,0,0,0,.631,2.338,3.575,3.575,0,0,0,1.721.214l2.517.067,5.031.136,9.558.257c1.144.031,2.244.258,2.944-.811a4.42,4.42,0,0,0,.349-1.7q.177-1.211.352-2.421.139-.968.279-1.936a6.639,6.639,0,0,0,.25-2.2c-.308-1.258-1.813-1.934-2.789-2.651q-3.773-2.766-7.542-5.535.431-1.274.859-2.546l2.693.933c-.348,1.184-.627,2.627.821,3.045q1.39.4,2.777.8c.728.211,1.837.79,2.612.563,1.651-.484,1.5-2.578,1.74-3.99C146.563,45.675,147.544,43.4,145.939,42.4Z" transform="translate(726.226 -1.126)"/><path class="e" d="M145.608,43.407q-6.925-2.087-13.85-4.177a.656.656,0,0,0-.8.437l-3.895,10.9a.65.65,0,0,0,.282.734l10.345,7.306q-.058.774-.115,1.549l-7.88-.194q.342-.981.686-1.96a.646.646,0,0,0-.438-.8l-4.122-.91a.663.663,0,0,0-.8.437q-1.294,3.393-2.586,6.785a.532.532,0,0,0,.2.673.6.6,0,0,0,.4.154l19.622.529a.66.66,0,0,0,.657-.634q.525-3.631,1.051-7.263a.645.645,0,0,0-.31-.562L133.832,48.9q.7-2.069,1.4-4.139,2.246.779,4.494,1.558-.27.961-.537,1.923a.652.652,0,0,0,.436.8l4.627,1.337a.647.647,0,0,0,.8-.437q.495-2.87.991-5.74A.66.66,0,0,0,145.608,43.407Z" transform="translate(726.071 -1.298)"/><path class="d" d="M123.532,34.594a.963.963,0,0,0-.2-.033l-.043-.005-.029,0H120.3a15.527,15.527,0,0,0-3.215.034c-1.594.361-1.895,2.763-2.371,4.057l-3.725,10.11q-1.506-3.925-3.011-7.85-.991-2.582-1.982-5.166c-.53-1.384-1.849-1.185-3.1-1.185h-5.65c-1.516,0-1.621,1.471-1.561,2.6q.063,1.232.129,2.465a5.163,5.163,0,0,0,.3,2.268c.629,1.074,2.174.922,3.375.849q2.812,6.689,5.621,13.381c.29.692.56,2.069,1.183,2.554a4.674,4.674,0,0,0,2.677.655l4.036.378c.921.088,2.428.551,3.284.05.713-.417.879-1.239,1.13-1.961q.672-1.927,1.344-3.854l2.52-7.226q1.259-3.612,2.519-7.226C124.318,38.021,125.922,35.209,123.532,34.594Zm-4.451,12.567q-1.008,2.891-2.016,5.781-.5,1.446-1.008,2.89c-.323.929-.356,2.188-1.537,2.077l-5.55-.521c-.35-.034-1.217.06-1.4-.375-.2-.471-.4-.941-.593-1.412l-1.185-2.823q-2.372-5.646-4.743-11.294a1,1,0,0,0-.934-.711h-1.3c-.745,0-.989.168-1.033-.662-.019-.376-.316-3.619-.016-3.619h5.649c.922,0,.955.391,1.256,1.173q2.7,7.044,5.4,14.091a.977.977,0,0,0,1.868,0q1.874-5.086,3.749-10.172.447-1.212.891-2.423c.169-.459.663-2.669,1.253-2.669h5.1C122.311,37.088,119.42,46.2,119.081,47.162Z" transform="translate(730.281 -0.559)"/><path class="f" d="M123.413,35.889H117.5a.662.662,0,0,0-.621.474q-2.856,7.75-5.712,15.5-2.972-7.751-5.945-15.5a.664.664,0,0,0-.622-.474h-7.19a.649.649,0,0,0-.646.646q.129,2.465.259,4.928a.66.66,0,0,0,.088.3.586.586,0,0,0,.556.343h2.609l6.72,16a.685.685,0,0,0,.623.474l8.071.758a.651.651,0,0,0,.624-.474q3.862-11.079,7.727-22.159A.651.651,0,0,0,123.413,35.889Z" transform="translate(730.109 -0.781)"/><path class="b" d="M83.181,34.776H79.527a1.159,1.159,0,0,0-1.132,1.133q-.943,7.263-1.885,14.526L67.44,35.79a1.144,1.144,0,0,0-2.07.27q-1.117,3.177-2.236,6.353c-.57,1.62-.465,3.8-.67,5.487q-.96,7.912-1.92,15.824a1.134,1.134,0,0,0,1.133,1.132h3.739a1.037,1.037,0,0,0,1.058-.841,1.263,1.263,0,0,0,.076-.291Q67.476,56.19,68.4,48.66,73.648,56.477,78.892,64.3A1.143,1.143,0,0,0,81,63.724l3.311-27.815A1.133,1.133,0,0,0,83.181,34.776Z" transform="translate(733.841 -0.605)"/><g transform="translate(897.767 32.992)"><path d="M204.782,36.79c-.806-.96-1.428-2.226-2.787-2.229l-5.064-.01-10.289-.022a1.161,1.161,0,0,0-1.133,1.133q-.26,1.956-.519,3.912a.869.869,0,0,0,.625,1.022,1.131,1.131,0,0,0,.508.111l12.371-.081q.013,1.336.024,2.673c0-.25-.466,1.12-.583,1.433l-.316.846-12.831.146a1.132,1.132,0,0,0-1.093.831q-1.683,8.638-3.369,17.274a1.149,1.149,0,0,0,1.092,1.434h4.42a1.127,1.127,0,0,0,1.092-.832q1.01-6.064,2.019-12.13l4.236-.084q1.576,6.106,3.152,12.215a1.139,1.139,0,0,0,1.092.832H202.3a1.142,1.142,0,0,0,1.092-1.434l-3.619-11.422c1.912-1.7,4.449-3.4,4.854-5.928q.515-3.215,1.032-6.431A3.168,3.168,0,0,0,204.782,36.79Z" transform="translate(-179.484 -33.558)"/><path class="a" d="M205.23,36.007c-.642-.813-1.467-2.215-2.622-2.373a43.717,43.717,0,0,0-5.83-.115l-6.859-.014c-1.386,0-3.71-.534-4.822.577-.873.874-.756,2.642-.9,3.745-.178,1.351-.516,2.58.838,3.32s3.859.209,5.354.2l7.953-.052-.849-.849q.008.891.015,1.782c.008.725.4-.28.074.486-.348.8-.629,1.637-.935,2.459q.408-.312.819-.623l-8.554.1c-1.617.018-4.463-.592-5.75.694-.614.614-.624,1.758-.776,2.536q-.42,2.159-.842,4.319l-1.684,8.637c-.315,1.614-1.144,3.476.286,4.727a3.029,3.029,0,0,0,2,.373,18.286,18.286,0,0,0,3.762-.03c1.957-.443,1.838-2.338,2.118-4.024q.794-4.765,1.587-9.53l-.819.623,4.236-.084c-.273-.209-.546-.416-.819-.624q1.125,4.362,2.252,8.725c.453,1.758.461,4.436,2.585,4.915a16.94,16.94,0,0,0,3.476.03,5.242,5.242,0,0,0,2.556-.241c1.835-1.074.684-3.2.2-4.716q-1.292-4.078-2.585-8.158c-.21-.661,1.59-1.764,2.04-2.174a9.924,9.924,0,0,0,2.1-2.716c1.145-2.169,1.1-5.433,1.485-7.832a4.585,4.585,0,0,0-1.1-4.087c-.68-.859-1.874.352-1.2,1.2,1.559,1.97.126,5.762-.242,8.061-.48,2.984-2.618,4.492-4.765,6.357a.831.831,0,0,0-.218.826l2.068,6.528q.518,1.631,1.034,3.263c.6,1.88-.759,1.991-2.194,1.991-1.6,0-2.694-.147-3.16-1.954q-.451-1.744-.9-3.489-.9-3.491-1.8-6.981a.852.852,0,0,0-.819-.624l-4.236.085a.848.848,0,0,0-.819.624q-.866,5.2-1.731,10.4a2.063,2.063,0,0,1-2.33,1.941c-.663,0-3.071.391-2.756-1.222q.59-3.023,1.178-6.047.506-2.59,1.012-5.182c.4-2.045.263-5.379,2.995-5.41l11.119-.126a.871.871,0,0,0,.818-.623,9.855,9.855,0,0,0,.511-1.772.833.833,0,0,0,.42-.734q-.011-1.336-.024-2.673a.857.857,0,0,0-.849-.849l-8.836.058q-.884,0-1.768.011c-1.094.008-2.128.32-1.947-1.054.225-1.7.177-3.414,2.414-3.41l8.575.019,4.22.008c1.7,0,2.1.811,3.03,1.981C204.708,38.067,205.9,36.856,205.23,36.007Z" transform="translate(-179.331 -33.375)"/></g><path class="b" d="M204.659,36.708c-.806-.96-1.428-2.226-2.787-2.228l-5.064-.011-10.289-.021a1.159,1.159,0,0,0-1.133,1.132q-.259,1.956-.519,3.912a.869.869,0,0,0,.624,1.022,1.124,1.124,0,0,0,.508.111l12.371-.081q.011,1.337.023,2.673c0-.25-.465,1.121-.583,1.433l-.316.847-12.831.146a1.135,1.135,0,0,0-1.093.832q-1.683,8.638-3.369,17.275a1.149,1.149,0,0,0,1.092,1.433h4.42a1.127,1.127,0,0,0,1.093-.832q1.009-6.066,2.019-12.13l4.236-.085q1.577,6.107,3.152,12.215a1.142,1.142,0,0,0,1.093.832h4.874a1.142,1.142,0,0,0,1.093-1.433q-1.811-5.712-3.619-11.423c1.913-1.7,4.449-3.4,4.854-5.926q.516-3.216,1.033-6.432A3.172,3.172,0,0,0,204.659,36.708Z" transform="translate(718.302 -0.554)"/><g transform="translate(743.105 32.81)"><path d="M26.313,34.277H7.394a1.125,1.125,0,0,0-1.092.831q-.388,2.48-.774,4.957a1.191,1.191,0,0,0,0,.327Q4.23,52.146,2.939,63.9A1.134,1.134,0,0,0,4.072,65.03H22.98A1.158,1.158,0,0,0,24.112,63.9l1.146-9.314a1.135,1.135,0,0,0-1.133-1.132l-4.185-.072a1.155,1.155,0,0,0-1.132,1.133q-.311,2.78-.62,5.561H9.525q1.159-9.74,2.316-19.48h8.714q-.328,2.528-.654,5.055a1.131,1.131,0,0,0,1.132,1.132q1.894-.034,3.786-.072a1.127,1.127,0,0,0,1.093-.832q.746-5.082,1.493-10.166A1.153,1.153,0,0,0,26.313,34.277Z" transform="translate(-2.148 -33.336)"/><path class="a" d="M26.165,33.251H9.949c-1.046,0-3.662-.495-4.313.819a15.648,15.648,0,0,0-1.106,5.818c-.067,5-1.084,10.156-1.63,15.127L2.038,62.85c-.162,1.481.166,2.4,1.661,2.822a12.1,12.1,0,0,0,2.927.03H19.23c1.417,0,3.853.555,4.993-.585,1.06-1.06.842-3.444,1.007-4.784.255-2.071,1.05-4.681.565-6.72-.338-1.414-2.507-1.2-3.491-1.218-1.363-.024-3.363-.489-4.2.945a6.738,6.738,0,0,0-.468,2.582q-.221,1.985-.443,3.972l.849-.85H9.377l.85.85q1.157-9.74,2.316-19.48l-.85.849h8.714l-.85-.849c-.227,1.758-1.659,5.6.341,6.767.912.534,2.273.246,3.259.226,1.041-.019,2.187.132,2.993-.674.768-.768.662-2.373.806-3.35q.372-2.542.747-5.083c.27-1.845,1.137-4.444-1.312-5.02-1.066-.251-1.519,1.387-.452,1.639,1.027.241-.607,7.918-.745,8.859-.315,2.14-1.864,1.928-3.551,1.96-1.637.031-.49-4.529-.386-5.324a.85.85,0,0,0-.849-.849H11.694a.869.869,0,0,0-.849.849Q9.686,50.156,8.528,59.9a.85.85,0,0,0,.849.849H18.04a.869.869,0,0,0,.849-.849q.222-1.987.444-3.972a1.852,1.852,0,0,1,2.134-1.843c.681.012,2.874-.313,2.69,1.173q-.312,2.539-.625,5.08l-.313,2.54c-.184,1.5-2.2,1.13-3.088,1.13H4.824c-1.854,0-.713-4.563-.609-5.507.732-6.662,1.207-13.414,2.241-20.035q.194-1.24.387-2.479c.217-1.389,2.261-1.034,3.105-1.034H26.165A.85.85,0,0,0,26.165,33.251Z" transform="translate(-2 -33.159)"/><path class="b" d="M26.313,34.277H7.394a1.125,1.125,0,0,0-1.092.831q-.388,2.48-.774,4.957a1.191,1.191,0,0,0,0,.327Q4.23,52.146,2.939,63.9A1.134,1.134,0,0,0,4.072,65.03H22.98A1.158,1.158,0,0,0,24.112,63.9l1.146-9.314a1.135,1.135,0,0,0-1.133-1.132l-4.185-.072a1.155,1.155,0,0,0-1.132,1.133q-.311,2.78-.62,5.561H9.525q1.159-9.74,2.316-19.48h8.714q-.328,2.528-.654,5.055a1.131,1.131,0,0,0,1.132,1.132q1.894-.034,3.786-.072a1.127,1.127,0,0,0,1.093-.832q.746-5.082,1.493-10.166A1.153,1.153,0,0,0,26.313,34.277Z" transform="translate(-2.148 -33.336)"/></g><path class="b" d="M54.364,35.225a1.153,1.153,0,0,0-.245-.44,1.034,1.034,0,0,0-.847-.391H38.5a1.137,1.137,0,0,0-.978.561c-.939,1.676-2.223,3.3-2.444,5.236q-.494,4.289-.985,8.577-.577,5.021-1.153,10.042c-.219,1.9-.564,3.052.728,4.614.6.728,1.15,1.818,2.205,1.818H48.625c.939,0,1.519-.874,2.131-1.483.713-.708,1.994-1.548,2.12-2.62q.379-3.26.759-6.52.726-6.215,1.449-12.43l.364-3.122C55.583,37.913,54.7,36.318,54.364,35.225ZM46.957,59.405h-8q1.276-9.448,2.552-18.9h7.667Z" transform="translate(737.242 -0.545)"/></g></svg>